Coordinates
version=1
nRows=28
nColumns=38
inDegrees=no

Units are S.I. units (second, meters, Newtons, ...)
If the header above contains a line with 'inDegrees', this indicates whether rotational values are in degrees (yes) or radians (no).

endheader
time	pelvis_tilt	pelvis_list	pelvis_rotation	pelvis_tx	pelvis_ty	pelvis_tz	hip_flexion_r	hip_adduction_r	hip_rotation_r	knee_angle_r	ankle_angle_r	subtalar_angle_r	mtp_angle_r	hip_flexion_l	hip_adduction_l	hip_rotation_l	knee_angle_l	ankle_angle_l	subtalar_angle_l	mtp_angle_l	lumbar_extension	lumbar_bending	lumbar_rotation	arm_flex_r	arm_add_r	arm_rot_r	elbow_flex_r	pro_sup_r	wrist_flex_r	wrist_dev_r	arm_flex_l	arm_add_l	arm_rot_l	elbow_flex_l	pro_sup_l	wrist_flex_l	wrist_dev_l
75	3.05744	1.01745	-1.51626	0.671551	0.216519	0.547132	0.713402	-0.536888	-0.0169431	2.0944	0.523599	0	0	0.788586	-0.558239	0.0587497	2.0944	0.463631	0	0	-1.44411	-0.00350557	0.0305537	1.10326	-0.605341	0.160764	1.41901	1.35249	0	0	0.966508	-0.503402	0.0628433	1.61649	0.923296	0	0
75.01	3.06123	1.02163	-1.51803	0.669959	0.220887	0.547519	0.702376	-0.533226	-0.0271669	2.0944	0.523599	0	0	0.796095	-0.560555	0.0654613	2.0944	0.466242	0	0	-1.43788	-0.00624161	0.026835	1.0981	-0.613471	0.217099	1.43499	1.07857	0	0	0.959587	-0.509403	0.0533078	1.63176	0.926226	0	0
75.02	3.02396	1.02662	-1.49234	0.784218	0.202621	0.534884	0.715996	-0.541641	-0.0119303	2.0944	0.523599	0	0	0.787129	-0.550784	0.056595	2.0944	0.464458	0	0	-1.44829	0.0107591	0.0178183	1.10576	-0.626616	0.258566	1.44489	0.996922	0	0	0.954442	-0.510292	0.0418147	1.6457	0.931442	0	0
75.03	3.06283	1.01283	-1.51825	0.65915	0.22771	0.552704	0.705721	-0.535765	-0.0168777	2.0944	0.523599	0	0	0.783887	-0.555678	0.06432	2.0944	0.463688	0	0	-1.45509	-0.00429206	0.0257988	1.11674	-0.603964	0.137943	1.4137	1.56385	0	0	0.955022	-0.514425	0.0397658	1.65165	0.923387	0	0
75.04	3.05994	1.01003	-1.51576	0.66872	0.233229	0.548695	0.700892	-0.534983	-0.0166445	2.0944	0.523599	0	0	0.779521	-0.554391	0.0651952	2.0944	0.463384	0	0	-1.46057	-0.00279079	0.0249525	1.11723	-0.62198	0.237674	1.43343	1.06429	0	0	0.954375	-0.517771	0.0399446	1.65485	0.930195	0	0
75.05	3.05753	1.02649	-1.51305	0.669043	0.224131	0.547658	0.71856	-0.532449	-0.0144775	2.0944	0.523599	0	0	0.798191	-0.551917	0.069082	2.0944	0.466876	0	0	-1.44678	-0.00304908	0.0258787	1.11282	-0.624668	0.232652	1.434	1.09589	0	0	0.952477	-0.520645	0.0445905	1.6563	0.929728	0	0
75.06	3.05908	1.02828	-1.51378	0.669742	0.22534	0.547348	0.718956	-0.531594	-0.013554	2.0944	0.523599	0	0	0.79872	-0.550269	0.0697679	2.0944	0.466442	0	0	-1.44654	-0.00444433	0.0273093	1.10925	-0.614733	0.137227	1.42299	1.56354	0	0	0.955021	-0.522382	0.0530872	1.6552	0.901963	0	0
75.07	3.05904	1.02217	-1.51311	0.671917	0.220971	0.534384	0.705507	-0.531354	-0.0150178	2.0944	0.523599	0	0	0.786069	-0.550441	0.0687687	2.0944	0.465632	0	0	-1.45646	-0.00481544	0.0292219	1.10486	-0.620008	0.132651	1.42948	1.56329	0	0	0.958576	-0.523138	0.0596253	1.6512	0.891375	0	0
75.08	3.06567	0.989591	-1.51702	0.663988	0.240963	0.559177	0.676514	-0.526789	-0.0163427	2.0944	0.523599	0	0	0.758863	-0.548484	0.0704077	2.0944	0.466205	0	0	-1.47378	-0.00818047	0.041828	1.10284	-0.63589	0.13069	1.42261	1.56329	0	0	0.985362	-0.511273	0.0891927	1.61907	0.883675	0	0
75.09	3.06353	0.99646	-1.51367	0.669955	0.225049	0.549146	0.677521	-0.527019	-0.0169415	2.0944	0.523599	0	0	0.760951	-0.54708	0.0711312	2.0944	0.467389	0	0	-1.47131	-0.00697616	0.0427961	1.095	-0.641897	0.12706	1.43223	1.56341	0	0	0.986882	-0.512572	0.0946459	1.61865	0.881951	0	0
75.1	3.0652	0.99844	-1.51296	0.670572	0.225986	0.549011	0.67717	-0.52713	-0.0173823	2.0944	0.523599	0	0	0.761653	-0.545533	0.0713754	2.0944	0.468462	0	0	-1.47018	-0.00592074	0.0427606	1.08954	-0.647242	0.125244	1.44069	1.56341	0	0	0.988599	-0.51534	0.0987228	1.61954	0.884531	0	0
75.11	3.06712	1.00007	-1.51253	0.670642	0.226858	0.549135	0.676428	-0.527054	-0.0178712	2.0944	0.523599	0	0	0.761735	-0.544312	0.0712301	2.0944	0.469807	0	0	-1.46914	-0.00445073	0.0412232	1.08528	-0.660616	0.187179	1.45308	1.25013	0	0	0.988612	-0.5204	0.100126	1.62194	0.883703	0	0
75.12	3.07017	1.00573	-1.51334	0.670437	0.227933	0.549256	0.680625	-0.527292	-0.0174012	2.0944	0.523599	0	0	0.765625	-0.542371	0.0706171	2.0944	0.471324	0	0	-1.46446	-0.00404205	0.0395338	1.08009	-0.663638	0.182088	1.45659	1.27338	0	0	0.988467	-0.525485	0.102989	1.62419	0.88191	0	0
75.13	3.07398	1.01214	-1.51487	0.670941	0.228872	0.549528	0.68538	-0.528103	-0.0166949	2.0944	0.523599	0	0	0.769579	-0.539826	0.0695513	2.0944	0.472354	0	0	-1.45918	-0.00371351	0.0370818	1.07483	-0.666542	0.177828	1.45853	1.29625	0	0	0.987871	-0.531269	0.106402	1.62566	0.881892	0	0
75.14	3.07773	1.02199	-1.51612	0.671092	0.229931	0.549884	0.693901	-0.528808	-0.0157765	2.0944	0.523599	0	0	0.777554	-0.536677	0.0686422	2.0944	0.47388	0	0	-1.45063	-0.00319043	0.0345349	1.06919	-0.669487	0.17515	1.4593	1.31863	0	0	0.98673	-0.537211	0.111385	1.62595	0.883185	0	0
75.15	3.08364	1.02641	-1.5193	0.671349	0.230662	0.550944	0.695786	-0.530781	-0.0145749	2.0944	0.523599	0	0	0.777759	-0.533333	0.0651439	2.0944	0.474286	0	0	-1.44924	-0.00363679	0.027018	1.06838	-0.668277	0.174687	1.458	1.34016	0	0	0.979678	-0.535771	0.0763181	1.64766	0.941805	0	0
75.16	3.08531	1.04357	-1.51845	0.670856	0.231993	0.551571	0.711993	-0.530138	-0.0144607	2.0944	0.523599	0	0	0.794329	-0.530305	0.0643127	2.0944	0.475898	0	0	-1.43227	-0.00152452	0.0300064	1.05974	-0.674602	0.171635	1.45832	1.36177	0	0	0.984241	-0.547276	0.120131	1.62228	0.923327	0	0
75.17	3.08833	1.0558	-1.51894	0.670767	0.232941	0.55283	0.72228	-0.530254	-0.0145431	2.0944	0.523599	0	0	0.80421	-0.527114	0.0615247	2.0944	0.476181	0	0	-1.42205	-0.00057574	0.0288829	1.05545	-0.677657	0.169251	1.45733	1.38276	0	0	0.983971	-0.551231	0.127509	1.62034	0.910614	0	0
75.18	3.09168	1.06484	-1.52014	0.670056	0.233841	0.554856	0.728422	-0.529906	-0.0151395	2.0944	0.523599	0	0	0.809602	-0.524506	0.057777	2.0944	0.475341	0	0	-1.41501	-2.2356e-06	0.0276939	1.05344	-0.680412	0.169274	1.45532	1.40393	0	0	0.98311	-0.554296	0.131883	1.61878	0.903156	0	0
75.19	3.11303	1.06868	-1.53442	0.611668	0.249187	0.565536	0.732921	-0.525695	-0.0182695	2.0944	0.523599	0	0	0.816621	-0.524415	0.0577709	2.0944	0.47139	0	0	-1.40835	-0.00614045	0.0292639	1.05317	-0.68167	0.170817	1.45164	1.42464	0	0	0.98221	-0.557877	0.134605	1.61676	0.900129	0	0
75.2	3.09982	1.0916	-1.52427	0.672348	0.236648	0.557574	0.73529	-0.524365	-0.0260399	2.0944	0.523599	0	0	0.832434	-0.522304	0.0558204	2.0944	0.46785	0	0	-1.38762	-0.00390131	0.0239992	1.03879	-0.681276	0.167117	1.4454	1.44482	0	0	0.978231	-0.560322	0.142542	1.61476	0.899615	0	0
75.21	3.08778	1.15966	-1.51485	0.670679	0.237988	0.556478	0.832932	-0.51531	-0.00778009	2.0944	0.522061	0	0	0.910808	-0.511041	0.0577125	2.0944	0.47223	0	0	-1.32629	-0.00207423	0.0272337	1.03225	-0.685269	0.176394	1.43776	1.46477	0	0	0.963302	-0.557251	0.148179	1.61484	0.899302	0	0
75.22	3.08126	1.22747	-1.50906	0.671151	0.241999	0.553811	0.909163	-0.509424	6.8077e-06	2.0944	0.519352	0	0	0.984315	-0.505494	0.0607733	2.0944	0.472071	0	0	-1.26703	-0.00271073	0.0222428	1.01211	-0.683304	0.170556	1.44908	1.4857	0	0	0.933658	-0.563685	0.135468	1.63857	0.900618	0	0
75.23	3.08507	1.22483	-1.50868	0.672843	0.243633	0.556854	0.880646	-0.507271	-0.0181407	2.0944	0.523599	0	0	0.977646	-0.508571	0.0614594	2.0944	0.461675	0	0	-1.26641	-0.00448508	0.0204045	1.00863	-0.680057	0.168723	1.43814	1.5042	0	0	0.936475	-0.564162	0.139184	1.63184	0.899529	0	0
75.24	3.07797	1.26094	-1.50557	0.671392	0.243868	0.559118	0.936175	-0.50032	-0.00149218	2.0944	0.518827	0	0	1.01061	-0.501345	0.055035	2.0944	0.461052	0	0	-1.23376	-0.00484834	0.0212731	1.00966	-0.680465	0.178606	1.42241	1.52239	0	0	0.926284	-0.558717	0.142298	1.62458	0.897553	0	0
75.25	3.07574	1.27945	-1.50428	0.67156	0.244978	0.561772	0.951788	-0.494627	-0.00099976	2.0944	0.518656	0	0	1.0244	-0.500398	0.0511083	2.0944	0.456967	0	0	-1.2138	-0.00665764	0.0208203	1.00765	-0.677357	0.183619	1.40478	1.5392	0	0	0.920967	-0.555528	0.144796	1.61418	0.898782	0	0
75.26	-3.10698	1.2971	-1.62245	0.673069	0.247257	0.56618	0.988441	-0.494177	0.0427938	2.0944	0.518172	0	0	1.00219	-0.500016	-0.00189507	2.0944	0.462642	0	0	-1.19523	-0.0397985	0.00263954	0.994066	-0.670431	0.182578	1.38703	1.55719	0	0	0.910872	-0.55277	0.149331	1.60139	0.902233	0	0
75.27	3.07362	1.32083	-1.50705	0.671911	0.247534	0.56663	0.990514	-0.48452	0.00298859	2.0944	0.518452	0	0	1.05336	-0.499625	0.0419302	2.0944	0.454297	0	0	-1.16543	-0.0127116	0.0201566	0.998632	-0.67044	0.198964	1.36623	1.56994	0	0	0.904568	-0.54789	0.150674	1.58715	0.905727	0	0
